<svg xmlns="http://www.w3.org/2000/svg" xmlns:xlink="http://www.w3.org/1999/xlink" contentStyleType="text/css" data-diagram-type="CLASS" height="325px" preserveAspectRatio="none" style="width:533px;height:325px;background:#FFFFFF;" version="1.1" viewBox="0 0 533 325" width="533px" zoomAndPan="magnify"><?plantuml 1.2026.3beta6?><defs/><g><!--class FuelType--><g class="entity" data-qualified-name="FuelType" data-source-line="2" id="ent0002"><rect fill="#F1F1F1" height="88.8906" rx="2.5" ry="2.5" style="stroke:#181818;stroke-width:0.5;" width="238.3516" x="7" y="213.63"/><ellipse cx="90.043" cy="229.63" fill="#ADD1B2" rx="11" ry="11" style="stroke:#181818;stroke-width:1;"/><path d="M94.1523,235.63 L86.4336,235.63 L86.4336,223.2394 L94.1523,223.2394 L94.1523,225.3956 L88.8867,225.3956 L88.8867,228.0675 L93.6523,228.0675 L93.6523,230.2238 L88.8867,230.2238 L88.8867,233.4738 L94.1523,233.4738 L94.1523,235.63 Z " fill="#000000"/><text fill="#000000" font-family="sans-serif" font-size="14" lengthAdjust="spacing" textLength="63.7656" x="110.543" y="234.4767">FuelType</text><line style="stroke:#181818;stroke-width:0.5;" x1="8" x2="244.3516" y1="245.63" y2="245.63"/><g data-visibility-modifier="PUBLIC_FIELD"><ellipse cx="18" cy="259.2784" fill="none" rx="3" ry="3" style="stroke:#038048;stroke-width:1;"/></g><text fill="#000000" font-family="sans-serif" font-size="14" lengthAdjust="spacing" textLength="72.3037" x="27" y="262.6251">id: Integer</text><g data-visibility-modifier="PUBLIC_FIELD"><ellipse cx="18" cy="275.5753" fill="none" rx="3" ry="3" style="stroke:#038048;stroke-width:1;"/></g><text fill="#000000" font-family="sans-serif" font-size="14" lengthAdjust="spacing" textLength="90.6514" x="27" y="278.922">name: String</text><g data-visibility-modifier="PUBLIC_FIELD"><ellipse cx="18" cy="291.8722" fill="none" rx="3" ry="3" style="stroke:#038048;stroke-width:1;"/></g><text fill="#000000" font-family="sans-serif" font-size="14" lengthAdjust="spacing" textLength="212.3516" x="27" y="295.2189">priceEntries: List&lt;PriceEntry&gt;</text></g><!--class GasStation--><g class="entity" data-qualified-name="GasStation" data-source-line="8" id="ent0003"><rect fill="#F1F1F1" height="105.1875" rx="2.5" ry="2.5" style="stroke:#181818;stroke-width:0.5;" width="238.3516" x="280" y="205.48"/><ellipse cx="356.6787" cy="221.48" fill="#ADD1B2" rx="11" ry="11" style="stroke:#181818;stroke-width:1;"/><path d="M360.7881,227.48 L353.0693,227.48 L353.0693,215.0894 L360.7881,215.0894 L360.7881,217.2456 L355.5225,217.2456 L355.5225,219.9175 L360.2881,219.9175 L360.2881,222.0738 L355.5225,222.0738 L355.5225,225.3238 L360.7881,225.3238 L360.7881,227.48 Z " fill="#000000"/><text fill="#000000" font-family="sans-serif" font-size="14" lengthAdjust="spacing" textLength="76.4941" x="377.1787" y="226.3267">GasStation</text><line style="stroke:#181818;stroke-width:0.5;" x1="281" x2="517.3516" y1="237.48" y2="237.48"/><g data-visibility-modifier="PUBLIC_FIELD"><ellipse cx="291" cy="251.1284" fill="none" rx="3" ry="3" style="stroke:#038048;stroke-width:1;"/></g><text fill="#000000" font-family="sans-serif" font-size="14" lengthAdjust="spacing" textLength="72.3037" x="300" y="254.4751">id: Integer</text><g data-visibility-modifier="PUBLIC_FIELD"><ellipse cx="291" cy="267.4253" fill="none" rx="3" ry="3" style="stroke:#038048;stroke-width:1;"/></g><text fill="#000000" font-family="sans-serif" font-size="14" lengthAdjust="spacing" textLength="92.251" x="300" y="270.772">Name: String</text><g data-visibility-modifier="PUBLIC_FIELD"><ellipse cx="291" cy="283.7222" fill="none" rx="3" ry="3" style="stroke:#038048;stroke-width:1;"/></g><text fill="#000000" font-family="sans-serif" font-size="14" lengthAdjust="spacing" textLength="107.2559" x="300" y="287.0689">Address: String</text><g data-visibility-modifier="PUBLIC_FIELD"><ellipse cx="291" cy="300.0191" fill="none" rx="3" ry="3" style="stroke:#038048;stroke-width:1;"/></g><text fill="#000000" font-family="sans-serif" font-size="14" lengthAdjust="spacing" textLength="212.3516" x="300" y="303.3657">priceEntries: List&lt;PriceEntry&gt;</text></g><!--class PriceEntry--><g class="entity" data-qualified-name="PriceEntry" data-source-line="15" id="ent0004"><rect fill="#F1F1F1" height="121.4844" rx="2.5" ry="2.5" style="stroke:#181818;stroke-width:0.5;" width="186.1934" x="169.08" y="7"/><ellipse cx="222.1029" cy="23" fill="#ADD1B2" rx="11" ry="11" style="stroke:#181818;stroke-width:1;"/><path d="M226.2123,29 L218.4936,29 L218.4936,16.6094 L226.2123,16.6094 L226.2123,18.7656 L220.9467,18.7656 L220.9467,21.4375 L225.7123,21.4375 L225.7123,23.5938 L220.9467,23.5938 L220.9467,26.8438 L226.2123,26.8438 L226.2123,29 Z " fill="#000000"/><text fill="#000000" font-family="sans-serif" font-size="14" lengthAdjust="spacing" textLength="71.6475" x="242.6029" y="27.8467">PriceEntry</text><line style="stroke:#181818;stroke-width:0.5;" x1="170.08" x2="354.2734" y1="39" y2="39"/><g data-visibility-modifier="PUBLIC_FIELD"><ellipse cx="180.08" cy="52.6484" fill="none" rx="3" ry="3" style="stroke:#038048;stroke-width:1;"/></g><text fill="#000000" font-family="sans-serif" font-size="14" lengthAdjust="spacing" textLength="72.3037" x="189.08" y="55.9951">id: Integer</text><g data-visibility-modifier="PUBLIC_FIELD"><ellipse cx="180.08" cy="68.9453" fill="none" rx="3" ry="3" style="stroke:#038048;stroke-width:1;"/></g><text fill="#000000" font-family="sans-serif" font-size="14" lengthAdjust="spacing" textLength="74.1973" x="189.08" y="72.292">date: Date</text><g data-visibility-modifier="PUBLIC_FIELD"><ellipse cx="180.08" cy="85.2422" fill="none" rx="3" ry="3" style="stroke:#038048;stroke-width:1;"/></g><text fill="#000000" font-family="sans-serif" font-size="14" lengthAdjust="spacing" textLength="118.3779" x="189.08" y="88.5889">amount: decimal</text><g data-visibility-modifier="PUBLIC_FIELD"><ellipse cx="180.08" cy="101.5391" fill="none" rx="3" ry="3" style="stroke:#038048;stroke-width:1;"/></g><text fill="#000000" font-family="sans-serif" font-size="14" lengthAdjust="spacing" textLength="133.5742" x="189.08" y="104.8857">fuelType: FuelType</text><g data-visibility-modifier="PUBLIC_FIELD"><ellipse cx="180.08" cy="117.8359" fill="none" rx="3" ry="3" style="stroke:#038048;stroke-width:1;"/></g><text fill="#000000" font-family="sans-serif" font-size="14" lengthAdjust="spacing" textLength="160.1934" x="189.08" y="121.1826">gasStation: GasStation</text></g><!--link PriceEntry to GasStation--><g class="link" data-entity-1="ent0004" data-entity-2="ent0003" data-link-type="association" data-source-line="23" id="lnk5"><path codeLine="23" d="M305.9,128.85 C323.75,153.39 344.2,181.51 361.4,205.14" fill="none" id="PriceEntry-GasStation" style="stroke:#181818;stroke-width:1;"/><polygon fill="#000000" points="346.1214,171.0897,343.1769,162.0464,338.4238,165.5043,346.1214,171.0897" style="stroke:#000000;stroke-width:1;"/><text fill="#000000" font-family="sans-serif" font-size="13" lengthAdjust="spacing" textLength="69.2085" x="352.18" y="171.5469">gasStation</text><text fill="#000000" font-family="sans-serif" font-size="13" lengthAdjust="spacing" textLength="8.271" x="302.2596" y="148.4281">1</text><text fill="#000000" font-family="sans-serif" font-size="13" lengthAdjust="spacing" textLength="23.0356" x="332.0888" y="194.4723">0..*</text></g><!--link PriceEntry to FuelType--><g class="link" data-entity-1="ent0004" data-entity-2="ent0002" data-link-type="association" data-source-line="24" id="lnk6"><path codeLine="24" d="M218.77,128.85 C198.95,156.3 175.9,188.21 157.76,213.34" fill="none" id="PriceEntry-FuelType" style="stroke:#181818;stroke-width:1;"/><polygon fill="#000000" points="196.2529,171.1,203.9308,165.4875,199.1654,162.0464,196.2529,171.1" style="stroke:#000000;stroke-width:1;"/><text fill="#000000" font-family="sans-serif" font-size="13" lengthAdjust="spacing" textLength="56.3101" x="208.18" y="171.5469">fuelType</text><text fill="#000000" font-family="sans-serif" font-size="13" lengthAdjust="spacing" textLength="8.271" x="205.5997" y="148.4281">1</text><text fill="#000000" font-family="sans-serif" font-size="13" lengthAdjust="spacing" textLength="23.0356" x="137.8381" y="202.4185">0..*</text></g><?plantuml-src dP7B2i8m44Nt_OeXIwL5jq4AWWy44Q7-G6p66cZIaamNHVntex4Fa6xC8Z07vjwPEtSb4L3Nr896VKNh8ZIaVBbhiBoqDS8Z0l_cId8u6C82RG16QEIGaLMc2AIsAiUjyGGTXwDoj3ftg4sZPzHfxuNBI92gpAJwwKTzBQL5v_wq7EYafHJaBJV-3xNGLME8WyHSQL46UFl6mlk00Y_wbVXelVS08sUsP137m1P9CcFZ53Ym50O9DjtKd-NJqat3NW00?></g></svg>